<?xml version="1.0" standalone="no"?>
<!DOCTYPE svg PUBLIC "-//W3C//DTD SVG 20010904//EN"
 "http://www.w3.org/TR/2001/REC-SVG-20010904/DTD/svg10.dtd">
<svg version="1.0" xmlns="http://www.w3.org/2000/svg"
 width="296.000000pt" height="296.000000pt" viewBox="0 0 296.000000 296.000000"
 preserveAspectRatio="xMidYMid meet">
<metadata>
Created by potrace 1.11, written by Peter Selinger 2001-2013
</metadata>
<g transform="translate(0.000000,296.000000) scale(0.100000,-0.100000)"
fill="#000000" stroke="none">
<path d="M2067 2325 c-78 -16 -190 -74 -253 -129 -57 -50 -129 -150 -119 -166
4 -6 24 17 46 50 117 174 326 263 539 229 145 -23 293 -121 370 -245 16 -26
30 -31 30 -12 0 21 -80 118 -132 159 -72 56 -149 94 -239 115 -47 11 -185 11
-242 -1z"/>
<path d="M2088 2284 c-3 -3 -18 -7 -33 -10 -89 -16 -217 -106 -284 -199 -47
-66 -15 -54 40 15 160 197 445 239 659 96 56 -38 91 -71 123 -119 14 -21 28
-33 32 -27 12 19 -60 107 -120 148 -22 15 -42 30 -45 33 -3 3 -36 19 -75 35
-60 24 -85 29 -181 31 -61 1 -114 0 -116 -3z"/>
<path d="M1032 2159 c-45 -17 -48 -49 -26 -226 2 -18 6 -51 8 -75 3 -24 7 -56
10 -73 3 -16 7 -59 10 -95 4 -36 8 -74 10 -85 2 -11 7 -56 10 -100 4 -44 9
-87 11 -95 2 -8 6 -46 10 -83 3 -37 8 -76 10 -86 2 -9 6 -57 10 -105 7 -87 7
-88 -15 -84 -17 2 -24 11 -26 33 -9 92 -15 143 -19 165 -2 14 -7 58 -10 99 -3
41 -8 77 -9 80 -2 3 -7 43 -10 87 -4 45 -9 93 -11 105 -2 13 -6 51 -10 84 -3
33 -7 71 -10 85 -2 14 -7 54 -10 90 -3 36 -8 74 -10 85 -2 11 -4 28 -4 38 -1
14 -11 17 -55 17 -45 0 -58 -4 -73 -23 -17 -21 -24 -22 -148 -22 -277 2 -367
-52 -506 -301 -115 -206 -119 -233 -80 -564 8 -66 7 -78 -8 -95 -10 -11 -21
-28 -24 -37 -9 -26 32 -137 55 -149 11 -6 90 -11 185 -11 161 -1 167 0 185 21
10 13 23 40 29 61 25 83 102 142 189 145 98 4 187 -53 241 -155 17 -33 41 -62
52 -66 25 -8 791 -9 804 -1 5 4 10 20 11 36 0 17 8 46 18 66 42 90 181 123
289 70 58 -28 102 -80 124 -145 11 -34 13 -35 54 -33 31 1 48 9 64 27 23 27
23 32 3 184 -6 40 -10 77 -10 82 0 4 -217 8 -483 7 -424 0 -486 2 -514 16 -49
26 -53 63 -10 86 14 7 100 12 236 14 l214 2 -69 47 c-38 26 -81 58 -97 70 -25
20 -39 22 -150 23 -132 1 -182 13 -190 47 -13 49 20 66 126 64 44 0 81 2 83 6
3 4 -6 24 -18 45 -13 21 -29 50 -36 66 -6 15 -20 27 -29 28 -120 5 -147 14
-158 50 -11 33 22 59 81 63 53 3 51 0 40 71 -3 17 -5 40 -5 53 -1 20 -6 22
-50 22 -54 0 -101 28 -101 60 0 30 45 54 99 53 l47 -1 13 76 c7 42 12 79 10
82 -6 7 -336 6 -357 -1z m-201 -341 c21 -17 27 -36 34 -105 4 -32 8 -67 10
-78 5 -38 -13 -63 -52 -74 -21 -6 -92 -22 -158 -37 -66 -14 -127 -27 -135 -29
-137 -31 -230 -47 -243 -42 -37 14 -30 50 35 182 76 154 97 173 204 182 38 3
70 6 71 7 1 0 50 2 110 4 75 1 113 -2 124 -10z"/>
<path d="M2418 2033 c-23 -6 -32 -37 -18 -63 11 -20 -1 -134 -29 -284 -7 -38
-5 -45 24 -79 18 -20 35 -37 39 -37 4 0 22 16 40 36 30 33 32 40 25 78 -4 22
-10 64 -13 91 -4 28 -12 79 -18 114 -8 48 -8 65 2 71 6 4 10 20 8 35 -3 29
-28 45 -60 38z"/>
<path d="M1466 1991 c-8 -13 -4 -171 5 -172 65 -6 84 -2 87 19 3 18 -2 22 -22
22 -16 0 -26 6 -26 15 0 9 9 15 25 15 18 0 25 5 25 20 0 15 -7 20 -25 20 -16
0 -25 6 -25 15 0 11 7 14 25 11 28 -5 38 4 25 24 -9 14 -87 23 -94 11z"/>
<path d="M1600 1909 c0 -52 4 -89 10 -90 6 -1 21 -1 35 -1 49 0 55 2 55 22 0
15 -7 20 -28 20 -28 0 -28 0 -26 65 1 36 -2 65 -5 66 -3 0 -14 2 -23 4 -16 3
-18 -6 -18 -86z"/>
<path d="M1813 1991 c-5 -3 -9 -42 -8 -86 0 -75 1 -80 23 -83 18 -3 22 1 22
21 0 20 6 26 35 31 19 4 39 15 45 26 15 27 12 66 -5 80 -15 13 -98 21 -112 11z
m72 -67 c-22 -16 -41 -4 -31 21 5 13 10 14 28 4 21 -11 21 -12 3 -25z"/>
<path d="M1968 1936 c-2 -33 -2 -74 0 -91 3 -27 6 -30 35 -28 18 1 40 2 50 2
30 2 21 39 -10 43 -27 3 -28 5 -27 66 0 34 -2 62 -5 63 -3 0 -14 2 -23 4 -14
2 -17 -7 -20 -59z"/>
<path d="M2140 1975 c-4 -11 -19 -49 -34 -84 -32 -79 -32 -79 -1 -73 14 2 25
8 25 13 0 15 67 10 73 -5 3 -8 15 -12 30 -9 l24 5 -36 88 c-28 69 -40 88 -54
87 -11 -1 -23 -11 -27 -22z m40 -82 c0 -7 -6 -13 -14 -13 -9 0 -12 8 -8 26 3
19 7 22 13 12 5 -7 9 -19 9 -25z"/>
<path d="M2268 1989 c-15 -9 -3 -39 16 -39 12 0 15 -13 14 -58 -2 -69 6 -86
31 -72 15 8 18 20 17 70 -2 53 0 60 16 60 14 0 19 6 16 22 -3 20 -9 23 -51 23
-26 1 -52 -2 -59 -6z"/>
<path d="M2496 1992 c-3 -3 -6 -43 -6 -89 0 -59 4 -83 13 -84 63 -6 82 -2 85
18 3 17 -3 22 -24 25 -26 3 -27 5 -28 67 -1 52 -4 65 -18 67 -9 1 -19 -1 -22
-4z"/>
<path d="M2619 1992 c-1 -10 -1 -133 0 -157 1 -17 7 -20 44 -18 23 1 45 2 49
2 3 1 5 9 4 19 -2 10 -13 18 -30 20 -26 3 -26 5 -23 63 2 36 -1 63 -7 67 -16
9 -36 11 -37 4z"/>
<path d="M2780 1988 c-39 -21 -55 -63 -41 -108 30 -101 181 -78 181 27 0 66
-80 112 -140 81z m64 -38 c50 -19 27 -96 -26 -88 -33 5 -47 51 -23 78 21 23
17 23 49 10z"/>
<path d="M1737 1777 c-52 -13 -80 -56 -74 -116 6 -54 37 -87 90 -95 69 -11
120 27 131 96 4 27 4 27 -59 26 -64 -1 -82 -11 -66 -37 5 -7 14 -12 22 -11 35
5 44 0 25 -15 -29 -22 -52 -18 -75 10 -32 42 -11 95 38 95 15 0 32 -5 37 -10
15 -15 62 -22 69 -11 9 15 -37 61 -70 69 -16 5 -47 4 -68 -1z"/>
<path d="M1985 1782 c-32 -6 -74 -53 -81 -90 -14 -74 55 -141 131 -126 35 6
84 46 86 70 1 8 2 24 3 37 3 26 -16 68 -38 86 -19 16 -74 28 -101 23z m67 -69
c24 -21 23 -58 -2 -83 -24 -24 -38 -25 -68 -4 -42 29 -20 104 30 104 12 0 30
-7 40 -17z"/>
<path d="M2150 1671 l0 -108 61 3 c34 2 72 10 85 18 50 34 49 135 -3 176 -19
15 -40 20 -84 20 l-59 0 0 -109z m116 34 c21 -31 11 -73 -19 -84 -35 -13 -42
-4 -41 52 2 62 0 57 24 57 11 0 27 -11 36 -25z"/>
<path d="M2541 1675 c1 -58 6 -106 10 -106 42 -6 44 -4 46 41 1 25 2 52 2 60
1 8 17 -11 37 -43 21 -31 41 -57 45 -57 19 0 7 -31 -37 -96 -80 -120 -205
-206 -336 -234 -53 -10 -171 -15 -208 -7 -98 21 -167 51 -233 101 -60 46 -109
100 -144 158 -15 26 -31 48 -35 48 -40 1 77 -159 162 -221 108 -78 208 -111
340 -111 166 1 299 59 417 181 41 43 96 132 96 157 0 13 4 22 10 21 8 -2 13
133 8 201 -1 6 -12 12 -26 12 -23 0 -24 -4 -27 -61 l-3 -61 -35 61 c-29 51
-39 61 -62 61 l-28 0 1 -105z"/>
<path d="M2612 1513 c-133 -215 -410 -293 -640 -181 -73 36 -177 131 -203 187
-10 18 -19 28 -23 22 -11 -18 24 -73 87 -135 43 -42 85 -71 146 -99 80 -38 93
-41 186 -44 190 -5 300 44 437 197 29 32 58 89 49 94 -5 3 -23 -15 -39 -41z"/>
<path d="M652 960 c-69 -31 -105 -104 -89 -180 16 -76 62 -129 133 -154 161
-56 287 116 188 256 -36 52 -77 77 -143 87 -39 6 -59 4 -89 -9z m116 -116 c69
-48 22 -140 -54 -105 -32 14 -48 55 -33 84 22 41 50 47 87 21z"/>
<path d="M1977 969 c-78 -13 -129 -77 -129 -158 1 -107 88 -193 197 -194 128
-1 197 118 140 241 -37 81 -122 126 -208 111z m88 -134 c29 -28 32 -61 8 -87
-23 -25 -59 -23 -88 7 -28 27 -32 53 -12 77 26 34 61 35 92 3z"/>
</g>
</svg>
